<svg xmlns="http://www.w3.org/2000/svg" xmlns:xlink="http://www.w3.org/1999/xlink" preserveAspectRatio="xMidYMid" width="18" height="18" viewBox="0 0 18 18">
  <defs>
    <style>
      .cls-1 {
        fill: #ff1b60;
        fill-rule: evenodd;
      }
    </style>
  </defs>
  <path d="M8.285,1.448 C8.285,0.965 8.285,0.520 8.285,0.077 C11.894,-0.460 15.888,1.808 17.372,5.649 C19.102,10.129 17.132,15.085 12.897,17.110 C8.629,19.151 3.559,17.569 1.147,13.444 C-0.996,9.781 -0.032,4.439 3.161,2.184 C5.409,4.439 7.654,6.690 9.892,8.934 C9.588,9.258 9.261,9.607 8.881,10.012 C6.966,8.082 5.070,6.171 3.173,4.259 C1.122,6.504 0.932,10.398 2.729,13.050 C4.754,16.038 8.351,17.206 11.705,15.968 C14.806,14.823 16.740,11.540 16.459,8.263 C16.191,5.126 13.123,1.032 8.285,1.448 Z" class="cls-1"/>
</svg>
