<svg xmlns="http://www.w3.org/2000/svg" xmlns:xlink="http://www.w3.org/1999/xlink" preserveAspectRatio="xMidYMid" width="15" height="18" viewBox="0 0 15 18">
  <defs>
    <style>
      .cls-1 {
        fill: #ff1b60;
        fill-rule: evenodd;
      }
    </style>
  </defs>
  <path d="M3.005,17.995 C3.005,17.499 3.005,17.024 3.005,16.517 C6.499,16.517 9.984,16.517 13.503,16.517 C13.503,11.999 13.503,7.514 13.503,3.007 C14.020,3.007 14.502,3.007 15.000,3.007 C15.000,8.003 15.000,12.988 15.000,17.995 C10.988,17.995 7.004,17.995 3.005,17.995 ZM-0.000,-0.004 C4.000,-0.004 7.992,-0.004 11.999,-0.004 C11.999,4.997 11.999,9.982 11.999,14.985 C7.997,14.985 4.012,14.985 -0.000,14.985 C-0.000,9.977 -0.000,4.998 -0.000,-0.004 ZM1.516,13.492 C4.513,13.492 7.490,13.492 10.481,13.492 C10.481,9.483 10.481,5.490 10.481,1.499 C7.479,1.499 4.501,1.499 1.516,1.499 C1.516,5.503 1.516,9.489 1.516,13.492 Z" class="cls-1"/>
</svg>
