<svg xmlns="http://www.w3.org/2000/svg" xmlns:xlink="http://www.w3.org/1999/xlink" preserveAspectRatio="xMidYMid" width="15" height="18" viewBox="0 0 15 18">
  <defs>
    <style>
      .cls-1 {
        fill: #ff1b60;
        fill-rule: evenodd;
      }
    </style>
  </defs>
  <path d="M-0.000,17.997 C0.007,16.421 0.103,14.886 0.770,13.451 C1.422,12.048 2.575,11.263 4.035,10.881 C5.662,10.457 7.321,10.445 8.979,10.573 C9.722,10.630 10.471,10.761 11.190,10.960 C12.852,11.418 13.961,12.491 14.497,14.143 C14.900,15.386 14.974,16.668 15.000,17.997 C10.003,17.997 5.024,17.997 -0.000,17.997 ZM13.409,16.379 C13.375,16.157 13.344,15.934 13.303,15.714 C12.984,13.992 12.080,12.764 10.323,12.331 C8.407,11.858 6.470,11.841 4.563,12.362 C2.729,12.862 1.492,14.636 1.603,16.494 C5.532,16.494 9.461,16.494 13.409,16.494 C13.409,16.437 13.413,16.408 13.409,16.379 ZM7.100,8.986 C5.173,8.729 3.785,7.217 3.752,5.338 C3.747,5.054 3.751,4.771 3.751,4.488 C3.742,4.488 3.732,4.487 3.723,4.486 C3.751,4.019 3.739,3.546 3.815,3.088 C4.117,1.275 5.752,-0.058 7.567,-0.002 C9.456,0.058 11.005,1.429 11.198,3.291 C11.301,4.286 11.364,5.300 11.091,6.287 C10.606,8.037 8.842,9.220 7.100,8.986 ZM9.737,4.518 C9.737,4.244 9.742,3.972 9.736,3.697 C9.709,2.518 8.775,1.556 7.612,1.505 C6.414,1.452 5.376,2.309 5.275,3.493 C5.219,4.162 5.223,4.840 5.275,5.510 C5.359,6.596 6.270,7.437 7.347,7.492 C8.485,7.550 9.460,6.836 9.675,5.740 C9.754,5.343 9.737,4.927 9.764,4.519 C9.755,4.519 9.746,4.519 9.737,4.518 Z" class="cls-1"/>
</svg>
