<svg xmlns="http://www.w3.org/2000/svg" xmlns:xlink="http://www.w3.org/1999/xlink" preserveAspectRatio="xMidYMid" width="16" height="18" viewBox="0 0 16 18">
  <defs>
    <style>
      .cls-1 {
        fill: #ff1b60;
        fill-rule: evenodd;
      }
    </style>
  </defs>
  <path d="M-0.000,17.997 C-0.000,12.005 -0.000,6.017 -0.000,-0.003 C5.339,-0.003 10.659,-0.003 16.000,-0.003 C16.000,5.997 16.000,11.985 16.000,17.997 C10.676,17.997 5.348,17.997 -0.000,17.997 ZM14.394,1.507 C10.124,1.507 5.870,1.507 1.611,1.507 C1.611,6.511 1.611,11.500 1.611,16.490 C5.887,16.490 10.139,16.490 14.394,16.490 C14.394,11.484 14.394,6.503 14.394,1.507 ZM4.008,11.264 C4.118,11.258 4.220,11.251 4.322,11.251 C5.971,11.249 7.621,11.256 9.271,11.244 C9.557,11.241 9.629,11.324 9.614,11.578 C9.593,11.955 9.609,12.336 9.609,12.737 C7.731,12.737 5.879,12.737 3.990,12.737 C3.990,12.285 3.989,11.856 3.991,11.427 C3.991,11.379 4.001,11.331 4.008,11.264 ZM4.009,7.511 C6.687,7.511 9.334,7.511 11.996,7.511 C11.996,8.005 11.996,8.482 11.996,8.981 C9.340,8.981 6.685,8.981 4.009,8.981 C4.009,8.500 4.009,8.017 4.009,7.511 ZM4.014,3.762 C6.661,3.762 9.316,3.762 11.996,3.762 C11.996,4.262 11.996,4.738 11.996,5.231 C9.334,5.231 6.686,5.231 4.014,5.231 C4.014,4.752 4.014,4.269 4.014,3.762 Z" class="cls-1"/>
</svg>
