<svg xmlns="http://www.w3.org/2000/svg" xmlns:xlink="http://www.w3.org/1999/xlink" preserveAspectRatio="xMidYMid" width="40" height="40" viewBox="0 0 40 40">
  <defs>
    <style>
      .cls-1 {
        fill: #ff1b60;
        fill-rule: evenodd;
      }
    </style>
  </defs>
  <path d="M20.000,39.999 C8.954,39.999 -0.000,31.045 -0.000,19.999 C-0.000,8.954 8.954,-0.001 20.000,-0.001 C31.046,-0.001 40.000,8.954 40.000,19.999 C40.000,31.045 31.046,39.999 20.000,39.999 ZM20.000,2.000 C10.059,2.000 2.000,10.058 2.000,19.999 C2.000,29.940 10.059,38.000 20.000,38.000 C29.941,38.000 38.000,29.940 38.000,19.999 C38.000,16.675 37.083,13.572 35.512,10.900 L20.707,25.704 L19.499,24.497 L19.293,24.704 L13.293,18.704 L14.707,17.289 L20.500,23.083 L34.293,9.289 L34.889,9.886 C31.649,5.127 26.191,2.000 20.000,2.000 Z" class="cls-1"/>
</svg>
