<svg xmlns="http://www.w3.org/2000/svg" xmlns:xlink="http://www.w3.org/1999/xlink" preserveAspectRatio="xMidYMid" width="18" height="18" viewBox="0 0 18 18">
  <defs>
    <style>
      .cls-1 {
        fill: #ff1b60;
        fill-rule: evenodd;
      }
    </style>
  </defs>
  <path d="M4.674,6.646 C4.051,4.982 3.745,3.277 3.660,1.512 C2.954,1.512 2.256,1.512 1.503,1.512 C1.523,5.259 2.473,8.694 4.954,11.582 C7.971,15.094 11.947,16.410 16.473,16.481 C16.473,15.750 16.473,15.052 16.473,14.329 C14.728,14.244 13.012,13.951 11.338,13.301 C11.540,12.827 11.732,12.374 11.931,11.904 C12.466,12.062 12.977,12.259 13.507,12.355 C14.405,12.516 15.311,12.665 16.220,12.726 C17.561,12.817 17.989,13.221 17.993,14.566 C17.995,15.200 18.003,15.833 18.000,16.467 C17.996,17.357 17.561,17.846 16.676,17.943 C15.102,18.114 13.568,17.860 12.052,17.471 C9.674,16.861 7.485,15.858 5.575,14.295 C3.627,12.702 2.297,10.660 1.343,8.358 C0.485,6.288 -0.033,4.140 0.002,1.883 C0.007,1.582 0.031,1.276 0.095,0.983 C0.215,0.426 0.574,0.069 1.143,0.042 C2.075,-0.003 3.013,-0.023 3.945,0.026 C4.743,0.068 5.124,0.537 5.205,1.333 C5.306,2.311 5.397,3.292 5.564,4.259 C5.667,4.857 5.904,5.432 6.087,6.040 C5.626,6.237 5.165,6.435 4.674,6.646 Z" class="cls-1"/>
</svg>
