<svg xmlns="http://www.w3.org/2000/svg" width="18" height="14" viewBox="0 0 18 14">
  <metadata><?xpacket begin="﻿" id="W5M0MpCehiHzreSzNTczkc9d"?>
<x:xmpmeta xmlns:x="adobe:ns:meta/" x:xmptk="Adobe XMP Core 5.6-c138 79.159824, 2016/09/14-01:09:01        ">
   <rdf:RDF xmlns:rdf="http://www.w3.org/1999/02/22-rdf-syntax-ns#">
      <rdf:Description rdf:about=""/>
   </rdf:RDF>
</x:xmpmeta>
                                                                                                    
                                                                                                    
                                                                                                    
                                                                                                    
                                                                                                    
                                                                                                    
                                                                                                    
                                                                                                    
                                                                                                    
                                                                                                    
                                                                                                    
                                                                                                    
                                                                                                    
                                                                                                    
                                                                                                    
                                                                                                    
                                                                                                    
                                                                                                    
                                                                                                    
                                                                                                    
                           
<?xpacket end="w"?></metadata>
<defs>
    <style>
      .cls-1 {
        fill: #ff1b60;
        fill-rule: evenodd;
      }
    </style>
  </defs>
  <path id="_" data-name="„" class="cls-1" d="M927.719,4968.49a2.8,2.8,0,0,0,2.107.88,3.324,3.324,0,0,1-.984,2.16,6.911,6.911,0,0,1-2,1.37l1.855,3.13a16.6,16.6,0,0,0,1.826-.89,7.927,7.927,0,0,0,2.079-1.65,9.375,9.375,0,0,0,1.686-2.64,9.559,9.559,0,0,0,.7-3.87,5.278,5.278,0,0,0-1.18-3.58,4.021,4.021,0,0,0-3.2-1.37,3.885,3.885,0,0,0-2.781,1.03,3.477,3.477,0,0,0-1.1,2.67A3.648,3.648,0,0,0,927.719,4968.49Zm-9.722,0a2.806,2.806,0,0,0,2.107.88,3.324,3.324,0,0,1-.984,2.16,6.906,6.906,0,0,1-1.994,1.37l1.854,3.13a16.684,16.684,0,0,0,1.827-.89,7.959,7.959,0,0,0,2.079-1.65,9.351,9.351,0,0,0,1.685-2.64,9.542,9.542,0,0,0,.7-3.87,5.273,5.273,0,0,0-1.18-3.58,4.02,4.02,0,0,0-3.2-1.37,3.887,3.887,0,0,0-2.782,1.03,3.48,3.48,0,0,0-1.1,2.67A3.652,3.652,0,0,0,918,4968.49Z" transform="translate(-917 -4962.03)"/>
</svg>
